<svg xmlns="http://www.w3.org/2000/svg">
  <symbol id="telegram" viewBox="0 0 21 18">
    <path fill-rule="evenodd" clip-rule="evenodd" d="M1.44364 7.74888C7.08077 5.20867 10.8397 3.534 12.7206 2.72489C18.0907 0.414697 19.2065 0.0133926 19.9338 0.000141289C20.0938 -0.00277319 20.4514 0.0382296 20.6831 0.232668C20.8787 0.396848 20.9326 0.618632 20.9583 0.774293C20.9841 0.929954 21.0162 1.28455 20.9907 1.56163C20.6997 4.7241 19.4405 12.3986 18.7999 15.9406C18.5288 17.4394 17.9951 17.9419 17.4784 17.9911C16.3554 18.098 15.5027 17.2235 14.4151 16.4861C12.7132 15.3323 11.7517 14.614 10.0997 13.488C8.19056 12.1868 9.42819 11.4716 10.5162 10.3027C10.801 9.99686 15.7486 5.34226 15.8444 4.92001C15.8564 4.86721 15.8675 4.67036 15.7544 4.56642C15.6414 4.46248 15.4745 4.49802 15.3541 4.52629C15.1834 4.56636 12.4646 6.42501 7.19761 10.1022C6.42588 10.6503 5.72687 10.9174 5.10058 10.9034C4.41015 10.888 3.08204 10.4996 2.09473 10.1677C0.883743 9.76056 -0.0787216 9.5453 0.00508745 8.85385C0.0487404 8.4937 0.528258 8.12538 1.44364 7.74888Z"/>
  </symbol>
  <symbol id="dzen" viewBox="0 0 24 24">
    <path d="M24 12.1286V11.8714C18.6857 11.7 16.26 11.5714 14.3143 9.68571C12.4286 7.74 12.2914 5.31429 12.1286 0H11.8714C11.7 5.31429 11.5714 7.74 9.68571 9.68571C7.74 11.5714 5.31429 11.7086 0 11.8714V12.1286C5.31429 12.3 7.74 12.4286 9.68571 14.3143C11.5714 16.26 11.7086 18.6857 11.8714 24H12.1286C12.3 18.6857 12.4286 16.26 14.3143 14.3143C16.26 12.4286 18.6857 12.2914 24 12.1286Z"/>
  </symbol>
  <symbol id="youtube" viewBox="0 0 26 26">
      <path d="M20.4163 22H5.58364C3.59898 22 2 19.9882 2 17.5136V9.48639C2 7.00178 3.60702 5 5.58364 5H20.4163C22.401 5 24 7.01183 24 9.48639V17.5136C24.008 19.9982 22.401 22 20.4163 22Z"/>
      <path d="M16.8914 13.3743L10.6517 9.25V17.4985L16.8914 13.3743Z" fill="#1FBEA5" />
  </symbol>
  <symbol id="vkontakte" viewBox="0 0 21 14">
       <path d="M11.4378 14C4.26292 14 0.170518 8.74475 0 0L3.59399 0C3.71204 6.41842 6.36158 9.13712 8.46027 9.69768L8.46027 0L11.8445 0V5.53552C13.917 5.29728 16.0941 2.77478 16.8286 0L20.2129 0C19.6488 3.41942 17.2878 5.94192 15.6089 6.97896C17.2878 7.8198 19.9769 10.02 21 14H17.2747C16.4746 11.3373 14.481 9.27726 11.8445 8.99698V14H11.4378Z"/>
  </symbol>

  <symbol id="yandex" viewBox="0 0 19 19">
    <g clip-path="url(#clip0_2003_72)">
      <circle cx="9.5" cy="9.5" r="10" fill="#EC1111" />
      <path d="M12.4508 10.5801V10.4352V9.88008V3.77148V3.2H12.8V15.8H12.4508V11.1352V10.5801ZM8.38505 9.75187C8.80908 10.1416 9.316 10.3674 9.84645 10.4822L9.67506 10.8136L7.09617 15.8H6.66452L9.1658 11.0917L9.52018 10.4246L8.82811 10.1219C8.20305 9.84857 7.7252 9.48403 7.39873 8.9964C7.07306 8.50997 6.86032 7.84479 6.86032 6.90508L6.86032 6.90432C6.85893 5.62317 7.32199 4.72368 8.01368 4.13394C8.26998 3.91542 8.56597 3.7326 8.89434 3.58831C8.72796 3.69281 8.56865 3.81525 8.41915 3.95744C7.72887 4.61401 7.34286 5.60095 7.34286 6.90508C7.34286 8.15851 7.6944 9.11711 8.38505 9.75187Z" fill="white" stroke="#FDFDFD" stroke-width="1.4" />
    </g>
    <defs>
      <clipPath id="clip0_2003_72">
        <rect width="18" height="18" fill="white" transform="translate(0.5 0.5)" />
      </clipPath>
    </defs>
  </symbol>
  <symbol id="google" viewBox="0 0 19 19">
    <path d="M13.7386 10.3H10.2V8.7H15.55V8.73112H16.25H16.2557C16.2848 8.98398 16.3 9.24046 16.3 9.5C16.3 13.2553 13.2553 16.3 9.5 16.3C5.74472 16.3 2.7 13.2553 2.7 9.5C2.7 5.74472 5.74472 2.7 9.5 2.7C11.0285 2.7 12.4359 3.20818 13.572 4.063L12.4276 5.20741C11.5951 4.63696 10.5878 4.3 9.5 4.3C6.62828 4.3 4.3 6.62828 4.3 9.5C4.3 12.3717 6.62828 14.7 9.5 14.7C11.7658 14.7 13.6847 13.2494 14.3985 11.2336L14.7291 10.3H13.7386Z" fill="#FFC107" stroke="#FDFDFD" stroke-width="1.4" />
    <path d="M2.86475 6.00912L5.32887 7.81625C5.99562 6.1655 7.61037 5 9.5 5C10.6471 5 11.6907 5.43275 12.4854 6.13962L14.6067 4.01825C13.2672 2.76987 11.4755 2 9.5 2C6.61925 2 4.121 3.62637 2.86475 6.00912Z" fill="#FF3D00" />
    <path d="M9.49999 17C11.4372 17 13.1975 16.2586 14.5284 15.053L12.2071 13.0888C11.4288 13.6807 10.4778 14.0008 9.49999 14C7.54924 14 5.89287 12.7561 5.26887 11.0203L2.82312 12.9046C4.06437 15.3335 6.58512 17 9.49999 17Z" fill="#4CAF50" />
    <path d="M16.8541 8.03113H16.25V8H9.5V11H13.7386C13.4428 11.8312 12.91 12.5574 12.206 13.0891L12.2071 13.0884L14.5284 15.0526C14.3641 15.2019 17 13.25 17 9.5C17 8.99713 16.9483 8.50625 16.8541 8.03113Z" fill="#1976D2" />
  </symbol>
</svg>



 